<svg xmlns="http://www.w3.org/2000/svg" viewBox="0 0 156.58 156.58"><title>FAQ</title><g id="Capa_2" data-name="Capa 2"><g id="Capa_1-2" data-name="Capa 1"><path d="M156.08,78.29A77.79,77.79,0,1,1,78.29.5a77.78,77.78,0,0,1,77.79,77.79" style="fill:#fff"/><path d="M156.08,78.29A77.79,77.79,0,1,1,78.29.5,77.78,77.78,0,0,1,156.08,78.29Z" style="fill:none;stroke:#e6e6e6;stroke-miterlimit:10"/><path d="M78.79,35.3a43,43,0,1,0,43,43,43,43,0,0,0-43-43m0,80a37,37,0,1,1,37-37,37,37,0,0,1-37,37" style="fill:#ff9f7d"/></g></g></svg>