<svg xmlns="http://www.w3.org/2000/svg" viewBox="0 0 18.08 16.69"><title>folder</title><g id="Capa_2" data-name="Capa 2"><g id="Capa_1-2" data-name="Capa 1"><path d="M16.69,4.85H15.32V4.17H11.61A4,4,0,0,1,8.67,3c-.39-.37-.77-.75-1.14-1.13a1.45,1.45,0,0,0-1.09-.46h-5a1.23,1.23,0,0,0,0,.19v13A.7.7,0,0,0,2,15.3a.69.69,0,0,0,.76-.53,1,1,0,0,0,0-.3V7.08a1.4,1.4,0,0,1,1.5-1.51H16.59a1.39,1.39,0,0,1,1.49,1.49v6.78a2.78,2.78,0,0,1-2.84,2.85H2.17A2.09,2.09,0,0,1,0,14.51v-13A1.39,1.39,0,0,1,1.48,0H6.43A2.8,2.8,0,0,1,8.5.85L9.59,2a2.76,2.76,0,0,0,2,.84h3.59a1.4,1.4,0,0,1,1.48,1.49Z" style="fill:#fff"/></g></g></svg>