<svg xmlns="http://www.w3.org/2000/svg" viewBox="0 0 228.84 228.84"><title>cableinternet</title><g id="Capa_2" data-name="Capa 2"><g id="Capa_1-2" data-name="Capa 1"><path d="M228.84,114.42A114.42,114.42,0,1,1,114.42,0,114.42,114.42,0,0,1,228.84,114.42" style="fill:#ff7b52"/><path d="M186.91,158.31c-1.57.49-3.13,1.41-4.7,1.41q-57.69.12-115.38.06c-8,0-16,.06-23.93-.08-1.25,0-2.48-.9-3.72-1.39v-88c1.41-.43,2.81-1.24,4.21-1.24Q113,69,182.68,69.1c1.41,0,2.82.8,4.23,1.23Zm-9.77-81.17H48.83v68.52H177.14Zm-59.7,75.75a4.39,4.39,0,1,0-8.78-.16,4.39,4.39,0,0,0,8.78.16" style="fill:#fff"/><path d="M112.7,140.19a29.11,29.11,0,1,1,29.54-28.77,29.12,29.12,0,0,1-29.54,28.77m2.19-15.82c2.48.56,4.57,1.13,6.7,1.45.66.1,1.88-.34,2.06-.82,1.39-3.69,2.59-7.45,4.06-11.79-4.36,0-7.72-.09-11.07.08A2.49,2.49,0,0,0,115,115c-.17,3.13-.08,6.28-.08,9.35M98.36,113.22l4.31,13,8.5-1.78c0-3.15.08-6.4-.07-9.64a2.24,2.24,0,0,0-1.58-1.49c-3.36-.15-6.72-.07-11.16-.07m.07-4H111c0-3.6.78-7.24-.34-10.16-.54-1.43-4.59-1.53-7.07-2.21a7.08,7.08,0,0,0-1.38,0c-1.21,3.93-2.43,7.92-3.79,12.38m25.44-12.52c-2.79.56-4.83.86-6.79,1.41-.8.22-2,.92-2.06,1.47-.2,3.2-.1,6.42-.1,9.73h12.65c-1.31-4.46-2.5-8.51-3.7-12.61M88,109.35h6.56c1.4-5,2.73-9.71,4.12-14.63-.85-.51-1.83-1.12-2.94-1.8A24.53,24.53,0,0,0,88,109.35m50.06,0a24.68,24.68,0,0,0-7.82-16.48l-2.88,1.87c1.41,5,2.75,9.77,4.12,14.61Zm-41.7,20.49L99,128.05c-1.24-4.49-2.3-8.57-3.53-12.59-.26-.85-1-2-1.75-2.13a33.12,33.12,0,0,0-5.6-.11,25,25,0,0,0,8.32,16.64m35.15-16.54L127,128.07l2.88,1.62c4.73-4.56,7.7-9.67,8-16.37ZM115.15,87V94.7l6.29-1.43L115.15,87m-4.09,1.17-.69-.57-5.43,5.88,6.12,1.19Zm4.07,40.42v6.13l5.84-5.21-5.84-.92m-4.1,0-5.78,1L111,135Z" style="fill:#fff"/></g></g></svg>