<svg xmlns="http://www.w3.org/2000/svg" viewBox="0 0 156.58 156.58"><title>cable</title><g id="Capa_2" data-name="Capa 2"><g id="Capa_1-2" data-name="Capa 1"><path d="M156.08,78.29A77.79,77.79,0,1,1,78.29.5a77.79,77.79,0,0,1,77.79,77.79" style="fill:#fff"/><path d="M156.08,78.29A77.79,77.79,0,1,1,78.29.5,77.79,77.79,0,0,1,156.08,78.29Z" style="fill:none;stroke:#e6e6e6;stroke-miterlimit:10"/><path d="M130.76,111.92a11.63,11.63,0,0,1-3.19,1q-39.22.09-78.45,0c-5.42,0-10.84,0-16.26-.06a8.05,8.05,0,0,1-2.53-.94V52.1a10.69,10.69,0,0,1,2.86-.84q47.36-.07,94.7,0a10.65,10.65,0,0,1,2.87.84Zm-6.64-55.19H36.89v46.58h87.23Zm-40.58,51.5a3,3,0,1,0-6-.11,2.89,2.89,0,0,0,2.92,3,2.93,2.93,0,0,0,3.05-2.88" style="fill:#05f7a4"/><path d="M80.31,99.6A19.79,19.79,0,1,1,100.4,80,19.8,19.8,0,0,1,80.31,99.6M81.8,88.84c1.68.38,3.11.77,4.56,1,.45.06,1.27-.23,1.4-.56.95-2.51,1.76-5.07,2.76-8-3,0-5.25-.06-7.53,0a1.7,1.7,0,0,0-1.13,1.18c-.12,2.13-.06,4.27-.06,6.36M70.56,81.26c1.1,3.31,2,6.1,2.93,8.82l5.78-1.21c0-2.14.06-4.35,0-6.55a1.51,1.51,0,0,0-1.07-1c-2.28-.09-4.57,0-7.59,0m0-2.69h8.55c0-2.45.53-4.92-.22-6.91-.37-1-3.13-1-4.81-1.5a4.36,4.36,0,0,0-.94,0l-2.58,8.42m17.3-8.52c-1.9.38-3.28.59-4.62,1-.54.15-1.38.63-1.4,1-.13,2.18-.07,4.37-.07,6.62h8.6c-.89-3-1.69-5.79-2.51-8.58M63.54,78.62H68l2.8-9.94-2-1.23a16.72,16.72,0,0,0-5.26,11.17m34,0a16.72,16.72,0,0,0-5.31-11.2l-2,1.27,2.8,9.93ZM69.23,92.57,71,91.34c-.85-3-1.57-5.82-2.41-8.56-.17-.57-.71-1.36-1.19-1.45a22.54,22.54,0,0,0-3.8-.07,17,17,0,0,0,5.66,11.31M93.12,81.33l-3.1,10,2,1.1c3.22-3.11,5.24-6.58,5.43-11.13ZM82,63.4v5.27l4.28-1L82,63.4m-2.79.79-.46-.38-3.69,4,4.15.8ZM82,91.67v4.17l4-3.54-4-.63m-2.79,0-3.93.7L79.18,96Z" style="fill:#05f7a4"/></g></g></svg>