<svg xmlns="http://www.w3.org/2000/svg" viewBox="0 0 156.58 156.58"><title>limpieza</title><g id="Capa_2" data-name="Capa 2"><g id="Capa_1-2" data-name="Capa 1"><path d="M156.08,78.29A77.79,77.79,0,1,1,78.29.5a77.79,77.79,0,0,1,77.79,77.79" style="fill:#fff"/><circle cx="78.29" cy="78.29" r="77.79" transform="translate(-11.74 142.75) rotate(-80.6)" style="fill:none;stroke:#e6e6e6;stroke-miterlimit:10"/><path d="M86.56,115.31c-2-2.23-4-4.33-5.91-6.58-5.74-7-9.55-15.06-12.45-23.56-.64-1.89-1.56-2.73-3.57-2.73-3.85,0-7.7-.07-11.54-.35-2-.15-2.63.76-3.45,2.35-2.85,5.52-5.52,11.2-9.06,16.25-3.25,4.62-7.54,8.51-11.57,13l10.72,6.09,6.15-11.11.46.23c-.8,4.05-1.59,8.11-2.49,12.67l13.64,2.71c.77-4.19,1.42-7.76,2.07-11.32,1.45,2.93,2.19,6,3.27,8.88a3.31,3.31,0,0,0,2.49,1.83c2.87-.3,5.69-1,8.8-1.67l-2.44-7.78c2.11,2,4.21,5.51,6.49,5.63,2.66.14,5.49-2.69,8.23-4.25.16-.09.23-.34.16-.24" style="fill:#05f7a4"/><path d="M98.87,80.59c-3.05-2.89-7-4.66-10.88-3.06C83.38,79.4,79.16,82.31,74.92,85c-2.81,1.78-2.69,2-.41,5,3.08-2.29,6.11-4.65,9.25-6.84s7.06-3.58,10.44-1.06c4.13,3.09,7.69,7,11.5,10.48-.17.36-.34.73-.5,1.1C95.35,87,85.4,82.84,74.79,92c3.38,7.23,7.21,14.35,13.87,19.52,3.16,2.45,3.06,4.67-.14,7l-2.27,1.64,7.91,8.61a8.59,8.59,0,0,0,1.32-1.13c5.26-6.93,10.81-13.67,15.64-20.89,3.52-5.29,2.55-11.11-1.68-15.59-3.42-3.63-7-7.14-10.57-10.57" style="fill:#05f7a4"/><path d="M67.33,77.6c.82-10.36.82-10.36-3.54-11.62,0-7.15,0-14.14,0-21.12.06-5.32.47-10.64.26-15.95,0-1.29-2-2.51-3-3.76a25.34,25.34,0,0,0-3.43,3.18c-.46.6-.21,1.75-.24,2.65-.35,10.3-.67,20.59-1,30.88,0,1.3-.25,2.6-.38,3.9L54.89,65c-1.23,1.25-3.24,2.33-3.55,3.78-.58,2.68-.16,5.57-.16,8.8Z" style="fill:#05f7a4"/><path d="M126.38,63.9c-1.82-1.85-3.18-1.67-4.81,0s-3.56,3.48-5.26,5.29c-4.3,4.57-8.56,9.18-12.69,13.62L107.14,87c6.66-6.43,12.92-12.47,19.16-18.51,1.53-1.47,1.83-2.79.08-4.56" style="fill:#05f7a4"/></g></g></svg>