<svg xmlns="http://www.w3.org/2000/svg" viewBox="0 0 156.58 156.58"><title>comunidad</title><g id="Capa_2" data-name="Capa 2"><g id="Capa_1-2" data-name="Capa 1"><path d="M156.08,78.29A77.79,77.79,0,1,1,78.29.5a77.79,77.79,0,0,1,77.79,77.79" style="fill:#fff"/><path d="M156.08,78.29A77.79,77.79,0,1,1,78.29.5,77.79,77.79,0,0,1,156.08,78.29Z" style="fill:none;stroke:#e6e6e6;stroke-miterlimit:10"/><path d="M139.07,83.93a2.79,2.79,0,0,0-1.29-2c-7.56-5-15.7-10.38-24-15.75a3.11,3.11,0,0,0-3.08,0c-8.32,5.42-16.71,11-23.82,15.66a2.93,2.93,0,0,0-1.43,2.09c0,1.55,0,3.1,0,4.73,0,.56,0,1.13,0,1.71v2.42l3.88-2.4V96q0,9.42,0,18.85c0,2.94,1,4,4,4l37.74,0h0a3.43,3.43,0,0,0,4.1-4.08q0-12.2,0-24.4l3.91,2.44V88.68c0-1.64,0-3.19,0-4.75m-10.49,26.19v2.08H96c0-.08,0-.15,0-.23v-7.45c0-5.8,0-11.79,0-17.68,0-.64.1-.89.79-1.33,4.79-3.08,9.78-6.37,15.25-10a2.63,2.63,0,0,1,.33-.18,1.76,1.76,0,0,1,.35.19q4.08,2.73,8.18,5.42,3.78,2.49,7.55,5a.88.88,0,0,1,.22.28c0,8,0,16.1,0,24" style="fill:#05f7a4"/><path d="M51.3,59.62l3.92-2.43c0,3.29,0,6.57,0,9.86q3.36,2.19,6.61,4.34c0-6.09,0-12.29,0-18.4a.88.88,0,0,1,.22-.28q3.75-2.51,7.54-5c2.73-1.8,5.46-3.59,8.18-5.41a1,1,0,0,1,.36-.19v.18l.16-.1a.59.59,0,0,1,.16.1v-.18a.88.88,0,0,1,.36.19c2.72,1.82,5.45,3.61,8.18,5.41q3.78,2.49,7.55,5a1,1,0,0,1,.21.28c0,6.11,0,12.31,0,18.4l6.6-4.34V57.19l3.91,2.43V55.51c0-1.65,0-3.2,0-4.76a2.82,2.82,0,0,0-1.29-2C96.39,43.74,88.26,38.36,80,33a4,4,0,0,0-3.44,0c-8.24,5.37-16.38,10.75-23.94,15.75a2.79,2.79,0,0,0-1.29,2c-.05,1.56-.05,3.11,0,4.76Z" style="fill:#05f7a4"/><path d="M69.65,81.82c-7.1-4.7-15.49-10.24-23.82-15.66a3.11,3.11,0,0,0-3.08,0C34.5,71.54,26.37,76.91,18.8,81.92a2.82,2.82,0,0,0-1.29,2c0,1.56,0,3.11,0,4.75V92.8l3.91-2.44q0,12.19,0,24.4a4.25,4.25,0,0,0,.93,3.15,4.33,4.33,0,0,0,3.18.93h0l37.74,0c2.94,0,4-1,4-4q0-9.42,0-18.84V90.37l3.89,2.4V88.64c0-1.64,0-3.18,0-4.73a2.93,2.93,0,0,0-1.43-2.09m-9,22.69V112a1.85,1.85,0,0,1,0,.23H28v-2.08c0-7.85,0-16,0-24a.93.93,0,0,1,.21-.27c2.51-1.68,5-3.33,7.55-5q4.09-2.7,8.18-5.42a1.41,1.41,0,0,1,.36-.19s.09,0,.32.18c5.48,3.67,10.47,7,15.25,10,.69.44.79.69.79,1.33,0,5.89,0,11.88,0,17.67" style="fill:#05f7a4"/></g></g></svg>