<svg xmlns="http://www.w3.org/2000/svg" viewBox="0 0 156.58 156.58"><title>decoracion</title><g id="Capa_2" data-name="Capa 2"><g id="Capa_1-2" data-name="Capa 1"><path d="M156.08,78.29A77.79,77.79,0,1,1,78.29.5a77.79,77.79,0,0,1,77.79,77.79" style="fill:#fff"/><circle cx="78.29" cy="78.29" r="77.79" transform="translate(-11.74 142.75) rotate(-80.6)" style="fill:none;stroke:#e6e6e6;stroke-miterlimit:10"/><path d="M125.7,71.53l-7.09-4.42c-.08,1.27-.19,2.18-.19,3.09q0,23.37,0,46.74c0,4.12-.94,5.08-5.14,5.07l-70.25,0c-4,0-4.9-.83-4.9-4.92q0-23.52,0-47V67l-7.23,4.46c0-4.24-.07-8.07.08-11.89,0-.66.86-1.44,1.52-1.88Q54.61,43.08,76.81,28.57a3.4,3.4,0,0,1,3,0q22.35,14.55,44.56,29.31a2.78,2.78,0,0,1,1.28,1.72c.11,3.82,0,7.65,0,11.91m-14.86,43.15a4.32,4.32,0,0,0,.3-.88c0-16.75.06-33.49,0-50.24a3.58,3.58,0,0,0-1.51-2.46c-9.73-6.49-19.55-12.86-29.28-19.37a3.09,3.09,0,0,0-4.06,0q-14.1,9.45-28.35,18.66A4.79,4.79,0,0,0,45.31,65c.09,15.59,0,31.18.06,46.76,0,.94.13,1.88.21,2.94Z" style="fill:#ff9f7d"/><path d="M89.35,92.89H67.51C67.17,86.18,64,82.21,57,82.31a10.29,10.29,0,0,1,10.22-10.7c7.72-.24,15.47-.24,23.2,0a10.09,10.09,0,0,1,9.85,10.74C93,82,89.76,86,89.35,92.89" style="fill:#ff9f7d"/><path d="M88.48,107.7H68c-.21,2.54-1.51,3.52-4.15,3.5-2.89,0-4.08-.94-4-3.87a7.3,7.3,0,0,0-1.12-3.09,21.43,21.43,0,0,1-1.71-3C56.34,98.64,56,96.08,53.64,94c-1-.84-.81-4.09,0-5.49s3.19-2.24,5-2.56c2.24-.4,3.77,1.25,4.57,3.28a13.76,13.76,0,0,1,.52,3.11c.34,2.63,1.63,4.36,4.45,4.37,6.77,0,13.54.07,20.31-.07,2.86,0,3.91-1.44,4.23-4.8.39-4.07,2.24-6.06,5.6-6A5.48,5.48,0,0,1,102,95.4c-.29.25-.82.35-1,.64-1.61,3.67-3.3,7.31-4.68,11.06-.56,1.53.71,3.85-2.33,4-4,.24-4.62-.07-5.54-3.44" style="fill:#ff9f7d"/></g></g></svg>