<svg xmlns="http://www.w3.org/2000/svg" viewBox="0 0 228.84 228.84"><title>electricity</title><g id="Capa_2" data-name="Capa 2"><g id="Capa_1-2" data-name="Capa 1"><path d="M228.84,114.42A114.42,114.42,0,1,1,114.42,0,114.42,114.42,0,0,1,228.84,114.42" style="fill:#ff7b52"/><path d="M113.35,193.05c-2.13-2.19-4.2-4.43-6.42-6.52a9.17,9.17,0,0,0-3.16-1.86c-4.9-1.74-7.39-5.17-7.84-10.55h39.21c-.46,5.15-2.83,8.46-7.4,10.47-1.62.71-2.84,2.34-4.25,3.54l-5.79,4.92Z" style="fill:#fff"/><path d="M136.89,149.27H94a45.63,45.63,0,0,1,0-6.21c1-6.78-1.34-12.41-5.43-17.67-3.72-4.81-7.1-9.88-10.67-14.81C66.13,94.24,65.55,73.26,76.47,56.79a46.71,46.71,0,0,1,48.88-19.92c19.49,4.31,33.91,19.63,36.59,39.46a45.41,45.41,0,0,1-8.22,33.37c-4.36,6.14-8.64,12.35-13.08,18.44-2.84,3.89-4.41,8-3.8,12.91a69.7,69.7,0,0,1,0,8.22" style="fill:#fff"/><path d="M115.2,166.55h-16c-3.12,0-5.6-1.21-5.73-4.54-.15-3.61,2.38-5,5.71-5h32.94c3.17,0,5.53,1.4,5.54,4.73s-2.37,4.74-5.51,4.76c-5.64.05-11.27,0-16.91,0" style="fill:#fff"/></g></g></svg>