<svg xmlns="http://www.w3.org/2000/svg" viewBox="0 0 228.84 228.84"><title>HOA</title><g id="Capa_2" data-name="Capa 2"><g id="Capa_1-2" data-name="Capa 1"><path d="M228.84,114.42A114.42,114.42,0,1,1,114.42,0,114.42,114.42,0,0,1,228.84,114.42" style="fill:#ff7b52"/><path d="M66.56,91.05H162.4c-.94,20.16-10.57,34.2-28.5,43,7.95,17.34,15.86,34.56,23.78,51.83-6.06,1.51-6.76,1.18-9.09-3.86-2.86-6.2-5.83-12.35-8.58-18.6a3.57,3.57,0,0,0-3.87-2.43c-15,.08-30.09,0-45.13.12a5,5,0,0,0-3.69,2c-.47.75.24,2.61.92,3.65a12.61,12.61,0,0,1-1,15.21,12.29,12.29,0,0,1-15.18,3,12.81,12.81,0,0,1-6.5-14.45,12.63,12.63,0,0,1,12.07-9.32c1,0,2.67-.4,3-1.12,4.26-8.53,8.33-17.16,12.56-26C82.48,128.31,74.59,120.27,70,109.17a45.29,45.29,0,0,1-3.48-18.12m60.61,46.51a56.21,56.21,0,0,1-24.86-.09,2.53,2.53,0,0,0-2.18.87c-2.77,5.28-5.4,10.63-8.24,16.27h44l-8.7-17.05M76,99.91a38.17,38.17,0,0,0,20.51,25.62c-5.59-6.11-9.92-12.93-12.17-21-1.51-5.4-1.53-5.4-7.28-5a8,8,0,0,0-1.06.37m5.86,74.45c-.23-2.5-1.46-4.11-4-4.17a3.67,3.67,0,0,0-4.14,3.89,3.74,3.74,0,0,0,3.9,4.17c2.53.11,3.85-1.49,4.25-3.89" style="fill:#fff"/><rect x="58.96" y="74.73" width="110.92" height="7.15" style="fill:#fff"/><path d="M110.71,42.19c-1.54,4.91.19,8.65,2.56,12.3,2,3.07,3.1,6.42,1.48,10a8.64,8.64,0,0,1-3.13,3.12c.66-4.55-1.78-7.65-3.87-11-3.45-5.55-2.44-10.66,3-14.4" style="fill:#fff"/><path d="M121.79,46.71c1.07,2.69,1.88,5.34,3.12,7.78,2.14,4.2,2,6.4-.78,8.75-1.25-2.7-2.53-5.45-3.8-8.21-1.49-3.24-1.19-6.12,1.46-8.32" style="fill:#fff"/><path d="M95.62,47c1,2.31,1.84,4.81,3,7.14,2,3.94,1.62,7.27-1,9.07-1-2.43-2-5-3.25-7.46-2-3.85-1.51-6.76,1.2-8.75" style="fill:#fff"/></g></g></svg>