<svg xmlns="http://www.w3.org/2000/svg" viewBox="0 0 156.58 156.58"><title>HOA_1</title><g id="Capa_2" data-name="Capa 2"><g id="Capa_1-2" data-name="Capa 1"><path d="M156.08,78.29A77.79,77.79,0,1,1,78.29.5a77.79,77.79,0,0,1,77.79,77.79" style="fill:#fff"/><circle cx="78.29" cy="78.29" r="77.79" transform="translate(-32.43 78.29) rotate(-45)" style="fill:none;stroke:#e6e6e6;stroke-miterlimit:10"/><path d="M36.13,62.14a9.2,9.2,0,1,0-9.2-9.2,9.2,9.2,0,0,0,9.2,9.2" style="fill:#ff9f7d"/><path d="M36.13,63.83A11.72,11.72,0,0,0,24.41,75.55V95.06h3.36v14.41a3.38,3.38,0,0,0,6.75,0V95.06h3.21v14.41a3.38,3.38,0,0,0,6.75,0V95.06h3.36V75.55A11.72,11.72,0,0,0,36.13,63.83" style="fill:#ff9f7d"/><path d="M64.24,62.14a9.2,9.2,0,1,0-9.2-9.2,9.2,9.2,0,0,0,9.2,9.2" style="fill:#ff9f7d"/><path d="M64.24,63.83A11.72,11.72,0,0,0,52.52,75.55V95.06h3.36v14.41a3.38,3.38,0,0,0,6.75,0V95.06h3.21v14.41a3.38,3.38,0,0,0,6.75,0V95.06H76V75.55A11.72,11.72,0,0,0,64.24,63.83" style="fill:#ff9f7d"/><path d="M92.35,62.14a9.2,9.2,0,1,0-9.2-9.2,9.2,9.2,0,0,0,9.2,9.2" style="fill:#ff9f7d"/><path d="M92.35,63.83A11.72,11.72,0,0,0,80.63,75.55V95.06H84v14.41a3.38,3.38,0,0,0,6.75,0V95.06H94v14.41a3.38,3.38,0,0,0,6.75,0V95.06h3.36V75.55A11.72,11.72,0,0,0,92.35,63.83" style="fill:#ff9f7d"/><path d="M120.46,62.14a9.2,9.2,0,1,0-9.2-9.2,9.2,9.2,0,0,0,9.2,9.2" style="fill:#ff9f7d"/><path d="M120.46,63.83a11.72,11.72,0,0,0-11.72,11.72V95.06h3.36v14.41a3.38,3.38,0,0,0,6.75,0V95.06h3.21v14.41a3.38,3.38,0,0,0,6.75,0V95.06h3.36V75.55a11.72,11.72,0,0,0-11.71-11.72" style="fill:#ff9f7d"/></g></g></svg>