<svg xmlns="http://www.w3.org/2000/svg" viewBox="0 0 228.84 228.84"><title>housecleaning</title><g id="Capa_2" data-name="Capa 2"><g id="Capa_1-2" data-name="Capa 1"><path d="M228.84,114.42A114.42,114.42,0,1,1,114.42,0,114.42,114.42,0,0,1,228.84,114.42" style="fill:#ff7b52"/><path d="M126.59,168.87c-3-3.28-6-6.37-8.69-9.68-8.45-10.3-14.06-22.15-18.32-34.65-1-2.79-2.3-4-5.25-4-5.66,0-11.33-.1-17-.52-2.92-.21-3.87,1.13-5.08,3.47-4.19,8.11-8.12,16.46-13.33,23.89-4.77,6.8-11.08,12.52-17,19l15.77,9c3.25-5.88,6.15-11.11,9-16.35l.68.34c-1.17,6-2.34,11.93-3.66,18.64l20.06,4,3.05-16.65c2.13,4.31,3.21,8.79,4.81,13.07.46,1.23,2.5,2.81,3.65,2.69,4.23-.45,8.39-1.54,13-2.46L104.7,167.2c3.11,2.89,6.19,8.09,9.54,8.27,3.92.21,8.07-3.95,12.11-6.25.23-.13.33-.51.24-.35" style="fill:#fff"/><path d="M144.68,117.81c-4.48-4.26-10.24-6.86-16-4.52-6.78,2.77-13,7-19.23,11-4.13,2.62-4,2.92-.6,7.34,4.53-3.36,9-6.83,13.61-10.05,4.78-3.33,10.37-5.27,15.35-1.56,6.08,4.53,11.31,10.22,16.9,15.4L154,137c-14.48-9.81-29.12-15.93-44.72-2.45,5,10.63,10.6,21.1,20.4,28.7,4.65,3.61,4.51,6.87-.2,10.3-1.33,1-2.65,1.91-3.34,2.42l11.64,12.66A13.26,13.26,0,0,0,139.7,187c7.74-10.19,15.9-20.1,23-30.73,5.18-7.77,3.75-16.33-2.47-22.93-5-5.32-10.23-10.49-15.55-15.53" style="fill:#fff"/><path d="M98.3,113.4c1.2-15.24,1.2-15.24-5.21-17.09,0-10.51-.08-20.79,0-31.07.08-7.82.7-15.65.38-23.45-.08-1.9-2.88-3.69-4.43-5.53-1.71,1.53-3.67,2.88-5,4.68-.68.87-.31,2.57-.36,3.9q-.77,22.69-1.51,45.41c-.07,1.92-.36,3.83-.55,5.74L80,94.9c-1.82,1.83-4.76,3.43-5.22,5.56-.85,3.94-.25,8.19-.25,12.94Z" style="fill:#fff"/><path d="M185.15,93.25c-2.68-2.71-4.68-2.45-7.08,0s-5.23,5.11-7.73,7.76c-6.33,6.73-12.6,13.52-18.66,20l5.17,6.1c9.8-9.47,19-18.34,28.19-27.23,2.24-2.17,2.69-4.11.11-6.71" style="fill:#fff"/></g></g></svg>