<svg xmlns="http://www.w3.org/2000/svg" viewBox="0 0 228.84 228.84"><title>info</title><g id="Capa_2" data-name="Capa 2"><g id="Capa_1-2" data-name="Capa 1"><path d="M228.84,114.42A114.42,114.42,0,1,1,114.42,0,114.42,114.42,0,0,1,228.84,114.42" style="fill:#ff7b52"/><path d="M114.94,39.84c43.75,0,79.62,36,79.59,79.72s-36,79.67-79.7,79.62-79.66-36-79.62-79.73,36-79.65,79.73-79.61m0,147.42a67.75,67.75,0,1,0-67.81-67.91,67.82,67.82,0,0,0,67.81,67.91" style="fill:#fff"/><path d="M138.81,162.88v5.23H92v-5.2l6.55-.43c3.5-.23,5.34-2.18,5.35-5.61q.11-18.33,0-36.65c0-3.53-2.17-5.28-5.49-5.55-2.3-.18-4.63,0-7.3,0v-5.77l36.26-1.32c.09,1.92.23,3.45.24,5q0,20.5,0,41c0,8,.67,8.68,8.53,9.12.72,0,1.44.11,2.68.21" style="fill:#fff"/><path d="M126.76,84.49a13.54,13.54,0,0,1-13.7,13.37A13.88,13.88,0,0,1,99.73,84,13.62,13.62,0,0,1,113.6,70.68a13.27,13.27,0,0,1,13.16,13.81" style="fill:#fff"/></g></g></svg>