<svg xmlns="http://www.w3.org/2000/svg" viewBox="0 0 228.84 228.84"><title>interiordesign</title><g id="Capa_2" data-name="Capa 2"><g id="Capa_1-2" data-name="Capa 1"><path d="M228.84,114.42A114.42,114.42,0,1,1,114.42,0,114.42,114.42,0,0,1,228.84,114.42" style="fill:#ff7b52"/><path d="M184.15,104l-10.44-6.5c-.11,1.86-.26,3.2-.26,4.54q0,34.36,0,68.75c0,6.06-1.4,7.46-7.56,7.46l-103.33,0c-6,0-7.21-1.21-7.22-7.23q-.06-34.59,0-69.18V97.35l-10.63,6.56c0-6.23-.11-11.87.11-17.5,0-1,1.27-2.11,2.24-2.75q32.54-21.54,65.2-42.87a5,5,0,0,1,4.41,0q32.88,21.4,65.54,43.11a4,4,0,0,1,1.88,2.53c.17,5.62.08,11.25.08,17.52m-21.86,63.46a5.8,5.8,0,0,0,.44-1.29c0-24.63.1-49.27,0-73.9a5.26,5.26,0,0,0-2.23-3.61c-14.31-9.55-28.75-18.92-43.05-28.49-2.24-1.49-3.72-1.54-6,0Q90.73,74,69.76,87.55c-2.69,1.73-3.88,3.49-3.86,6.78.15,22.93.07,45.86.09,68.79,0,1.37.2,2.75.31,4.31Z" style="fill:#fff"/><path d="M130.69,135.39H98.56c-.51-9.87-5.16-15.72-15.52-15.57-.48-8.25,6.12-15.46,15-15.73q17.06-.53,34.12,0a14.87,14.87,0,0,1,14.5,15.79c-10.66-.55-15.4,5.4-16,15.53" style="fill:#fff"/><path d="M129.4,157.17H99.35c-.32,3.74-2.23,5.17-6.12,5.15-4.25,0-6-1.39-5.83-5.7,0-1.49-.94-3.08-1.65-4.54s-2.07-2.82-2.52-4.4c-1.1-3.84-1.6-7.61-5.07-10.66-1.4-1.24-1.2-6,.08-8.08s4.68-3.3,7.35-3.77c3.3-.58,5.55,1.84,6.72,4.83a19.58,19.58,0,0,1,.76,4.58c.5,3.86,2.4,6.41,6.54,6.43,10,0,19.92.09,29.88-.1,4.21-.09,5.75-2.13,6.22-7.07.57-6,3.29-8.91,8.25-8.88a8.07,8.07,0,0,1,5.29,14.11c-.41.38-1.19.51-1.38,1-2.37,5.39-4.86,10.74-6.89,16.26-.82,2.25,1,5.66-3.43,5.94-5.81.36-6.79-.1-8.15-5.05" style="fill:#fff"/></g></g></svg>