<svg xmlns="http://www.w3.org/2000/svg" viewBox="0 0 156.58 156.58"><title>mantenimiento</title><g id="Capa_2" data-name="Capa 2"><g id="Capa_1-2" data-name="Capa 1"><path d="M156.08,78.29A77.79,77.79,0,1,1,78.29.5a77.79,77.79,0,0,1,77.79,77.79" style="fill:#fff"/><path d="M156.08,78.29A77.79,77.79,0,1,1,78.29.5,77.79,77.79,0,0,1,156.08,78.29Z" style="fill:none;stroke:#e6e6e6;stroke-miterlimit:10"/><path d="M78.63,90.18,90.88,77.92c3.49,3.52,7.1,7.13,10.66,10.78a2.71,2.71,0,0,0,2.93.93c7.34-1.52,13.7.48,18.51,6.25,4.6,5.53,5.64,11.87,3.14,18.69-1,2.62-1.58,2.75-3.6.74-3.37-3.34-6.69-6.71-10.06-10-2.38-2.35-5.11-2.54-7.08-.57s-1.75,4.62.64,7c3.39,3.42,6.82,6.8,10.2,10.22,1.76,1.78,1.61,2.47-.75,3.35-6.78,2.54-13.17,1.64-18.72-2.93-5.77-4.77-7.86-11.11-6.4-18.47a2.94,2.94,0,0,0-1-3.15c-3.63-3.49-7.18-7.06-10.76-10.59" style="fill:#ff9f7d"/><path d="M78.24,65.31,66,77.51c-3.14-3.17-6.41-6.43-9.63-9.75A2.56,2.56,0,0,0,53.62,67c-7.33,1.52-13.7-.44-18.53-6.2-4.62-5.51-5.69-11.85-3.2-18.68,1-2.68,1.58-2.82,3.58-.84,3.36,3.33,6.69,6.71,10.06,10,2.39,2.36,5.09,2.59,7.07.65s1.82-4.65-.55-7c-3.33-3.38-6.7-6.71-10-10.07-2-2.07-1.91-2.68.92-3.69,6.74-2.39,13-1.38,18.47,3.18,5.67,4.75,7.73,11,6.28,18.3a3.14,3.14,0,0,0,1.08,3.33c3.18,3.08,6.3,6.23,9.48,9.38" style="fill:#ff9f7d"/><path d="M116.2,67.74a67.46,67.46,0,0,0-5.54-4.24c-1.08-.66-2.54-.66-3.81-1-1.46-.45-2.9-1-4.64-1.62-9,9.11-18.46,18.56-27.81,28L67.51,82,95.9,53.72c-1.6-1.6-1.67-3.06-.7-5,1.48-3,.34-5.83-1.61-8.29-3.1-3.93-7.49-5.64-12.14-6.85-1.5-.4-3-.72-5.2-1.23a14.67,14.67,0,0,1,8.67-1.82A29.64,29.64,0,0,1,99,35.44c6.9,4.35,13.32,9.3,17.63,16.39,1.18,2,1.56,4.37,2.44,6.52.58,1.45,1.39,2.81,2.06,4.14.46-.12.64-.11.73-.19,2.3-2,4-2.21,5.36-.64,1.23,1.4.85,3.23-1.09,5.18L121,72c-2.21,2.19-3.8,2.61-5.33,1.38s-1.45-2.89.55-5.67" style="fill:#ff9f7d"/><path d="M72.22,91.8A11.6,11.6,0,0,1,71,94q-13.74,15.4-27.55,30.75c-1.59,1.77-2.79,1.78-4.47.15q-3.94-3.84-7.79-7.79c-1.56-1.6-1.56-2.84.07-4.31Q46.63,98.95,62.11,85.1c1.3-1.17,2.79-1.54,4.14-.37a72.47,72.47,0,0,1,5.18,5.19,6.78,6.78,0,0,1,.79,1.88" style="fill:#ff9f7d"/></g></g></svg>