<svg xmlns="http://www.w3.org/2000/svg" viewBox="0 0 156.58 156.58"><title>telefonos</title><g id="Capa_2" data-name="Capa 2"><g id="Capa_1-2" data-name="Capa 1"><path d="M156.08,78.29A77.79,77.79,0,1,1,78.29.5a77.79,77.79,0,0,1,77.79,77.79" style="fill:#fff"/><path d="M156.08,78.29A77.79,77.79,0,1,1,78.29.5,77.79,77.79,0,0,1,156.08,78.29Z" style="fill:none;stroke:#e6e6e6;stroke-miterlimit:10"/><path d="M95.45,66.63v-11H88v11H68.55v-11H61.14v11h-8L44.34,104h0v9.24a4.2,4.2,0,0,0,4.2,4.2h59.52a4.2,4.2,0,0,0,4.2-4.2V104l-8.82-37.35Zm-17.16,41.7A16.31,16.31,0,1,1,94.6,92a16.31,16.31,0,0,1-16.31,16.31" style="fill:#ff9f7d"/><path d="M104.33,39.16H52.25A19.36,19.36,0,0,0,32.89,58.53v6.58H48.32V59.4a9,9,0,0,1,9-9H99.21a9,9,0,0,1,9.05,9v5.71H123.7V58.53a19.37,19.37,0,0,0-19.37-19.37" style="fill:#ff9f7d"/></g></g></svg>