<svg xmlns="http://www.w3.org/2000/svg" viewBox="0 0 156.58 156.58"><title>publicos</title><g id="Capa_2" data-name="Capa 2"><g id="Capa_1-2" data-name="Capa 1"><path d="M156.08,78.29A77.79,77.79,0,1,1,78.29.5a77.79,77.79,0,0,1,77.79,77.79" style="fill:#fff"/><circle cx="78.29" cy="78.29" r="77.79" transform="translate(-32.43 78.29) rotate(-45)" style="fill:none;stroke:#e6e6e6;stroke-miterlimit:10"/><path d="M77.57,131.75c-1.45-1.48-2.86-3-4.37-4.43a6.58,6.58,0,0,0-2.15-1.27c-3.33-1.18-5-3.51-5.33-7.17H92.38a7.86,7.86,0,0,1-5,7.12,13.47,13.47,0,0,0-2.88,2.41l-3.94,3.34Z" style="fill:#05f7a4"/><path d="M93.57,102H64.41a31,31,0,0,1,0-4.22c.65-4.61-.92-8.43-3.69-12-2.54-3.27-4.83-6.72-7.26-10.07A31.84,31.84,0,1,1,110.6,52.4,30.85,30.85,0,0,1,105,75.09c-3,4.17-5.87,8.39-8.89,12.53a11.87,11.87,0,0,0-2.59,8.77,46.86,46.86,0,0,1,0,5.59" style="fill:#05f7a4"/><path d="M78.82,113.73H67.92c-2.12,0-3.81-.82-3.9-3.09-.1-2.46,1.62-3.38,3.88-3.38H90.3c2.15,0,3.76,1,3.77,3.21s-1.62,3.22-3.75,3.24c-3.83,0-7.66,0-11.5,0" style="fill:#05f7a4"/></g></g></svg>