<svg xmlns="http://www.w3.org/2000/svg" viewBox="0 0 228.84 228.84"><title>trash</title><g id="Capa_2" data-name="Capa 2"><g id="Capa_1-2" data-name="Capa 1"><path d="M228.84,114.42A114.42,114.42,0,1,1,114.42,0,114.42,114.42,0,0,1,228.84,114.42" style="fill:#ff7b52"/><path d="M66.28,96.59c-5.77,21.64-11.42,42.8-17.1,64.13a82.07,82.07,0,0,0,7.2-4.07A5.55,5.55,0,0,0,58,153.59q7.35-27.18,14.57-54.38c.47-1.81,1-2.67,3.1-2.66,15.76.07,31.52,0,47.29.06.2,0,.39.18,1,.45-7.84,9-15.56,17.85-23.37,26.66-4.56,5.15-6.57,10.95-4.13,17.54a23.11,23.11,0,0,0,4.78,7.23c5.09,5.59,10.44,10.95,16.37,17.11H98.1c1.42,8.57-.58,15.16-8.39,18.82-5.57,2.61-11.29,1.2-17.51-4-5,5-11,6.95-17.63,3.85-7.63-3.56-9.54-10.2-8.16-18-6.51-1-6.57-1-7.9-7.42-1.84-8.83-3.7-17.65-5.28-26.53a9.81,9.81,0,0,1,.92-5.89c4.81-9,9.77-18,15-26.84A7.06,7.06,0,0,1,54,96.72c3.85-.42,7.78-.13,12.33-.13M69,170.86a8.17,8.17,0,0,0-8-8.24,8.41,8.41,0,0,0-8.54,8.23,8.5,8.5,0,0,0,8.51,8.3,8.3,8.3,0,0,0,8-8.29m6.64.15a8.4,8.4,0,0,0,8.22,8.17,8.68,8.68,0,0,0,8.4-8.48,8.36,8.36,0,0,0-8.33-8A8.15,8.15,0,0,0,75.6,171" style="fill:#fff"/><path d="M131.87,160.7v-5.91q0-15.22,0-30.44c0-7.41,3.63-11.06,10.94-11.08,4.28,0,8.56,0,12.84,0a12.25,12.25,0,0,1,11.25,6.31c3.21,5.33,6.38,10.71,9.22,16.25a17,17,0,0,1,1.62,7c.22,6.35.14,12.71.06,19.06-.09,6.74-3.73,10.33-10.46,10.52a43.05,43.05,0,0,1-4.4,0c-4.73-.37-8.42-.42-10.45,5.71-2.13,6.43-10.57,9-17.07,6.8-7.32-2.51-11.44-9.33-9.82-17a5.19,5.19,0,0,0-1.65-5.4q-9.39-9.54-18.59-19.26c-4.38-4.62-4.54-9.55-.34-14.38Q125.68,105,146.46,81.32c1.54-1.77,3.25-3.53.6-6.24-2.85,3.24-5.64,6.39-8.38,9.49l-21.35-21.4c10.14-8.87,20.38-17.84,30.51-26.72l17.28,17.91-9.53,10.9L145,53.78l-4.85,5.33c3.57,3.43,7.38,7,11.07,10.69,4.88,4.88,5.16,10,.65,15.23-8.2,9.54-16.61,18.92-24.75,28.52a9.45,9.45,0,0,0-2,5.5c-.2,9.41.34,18.85-.24,28.23-.36,5.85,1.66,9.78,7,13.42m19.57-40.63c0,6.4-.05,12.6,0,18.79,0,2.36,1.1,3.95,3.77,3.94,5.22,0,10.44,0,16.27,0a33.93,33.93,0,0,0-1.72-5c-2.37-4.39-4.88-8.7-7.38-13-2.82-4.88-4.69-5.71-11-4.7m-3.26,50.77a8.2,8.2,0,0,0-8.08-8.22,8.4,8.4,0,0,0-8.5,8.28,8.71,8.71,0,0,0,8.57,8.31,8.33,8.33,0,0,0,8-8.37" style="fill:#fff"/><path d="M145.3,102.27c2.11-1.9,4.07-5.16,6.35-5.4,4.76-.49,10-1.67,14.39,2.1,2.11,1.81,4.83,3,6.84,4.85a4.85,4.85,0,0,1,1,4.26c-.77,2-2.68,2-4.61,1-3.67-2-7.22-4.67-11.17-5.66s-8.2-.22-12.33-.22l-.49-.9" style="fill:#fff"/><path d="M123.09,73.59c-2.13,1.44-3.49,3.06-4.63,2.92s-3-2-3-3.12,1.93-2.88,3.11-3S121,72,123.09,73.59" style="fill:#fff"/><path d="M105.41,84.64c-1.54-2-3.25-3.33-3.16-4.46s1.91-2.26,3-3.39c1.12,1.07,3,2,3.13,3.25s-1.5,2.49-2.94,4.6" style="fill:#fff"/><path d="M125,75.53c1.52,2.07,3.22,3.36,3.12,4.51s-1.94,3.07-3,3.07-3-1.83-3.1-3,1.53-2.47,3-4.57" style="fill:#fff"/><path d="M115.3,78.7c1.45,2.35,3,3.73,2.78,4.81a4.45,4.45,0,0,1-3.18,2.75c-.8.1-2.62-1.84-2.63-2.88,0-1.2,1.47-2.41,3-4.68" style="fill:#fff"/><path d="M113.26,89.74c-2.22,1.62-3.38,3.14-4.59,3.17-1,0-3-1.76-3-2.54a4.53,4.53,0,0,1,2.68-3.3c1.06-.23,2.49,1.28,4.87,2.67" style="fill:#fff"/><path d="M121.65,94.68c-1.43-2.36-3-3.76-2.74-4.82a4.52,4.52,0,0,1,3.2-2.77c.77-.12,2.6,1.86,2.6,2.89,0,1.21-1.48,2.42-3.06,4.7" style="fill:#fff"/></g></g></svg>