<svg xmlns="http://www.w3.org/2000/svg" viewBox="0 0 25.41 33.49"><title>llaves-color</title><g id="Capa_2" data-name="Capa 2"><g id="Capa_1-2" data-name="Capa 1"><path d="M6.66,10.91a.86.86,0,0,0,.87-.86.75.75,0,0,0-.09-.37,7.47,7.47,0,0,1-.12-1.26,6.74,6.74,0,1,1,11.14,5.1.87.87,0,0,0,.35,1.66.9.9,0,0,0,.65-.29h0A8.44,8.44,0,1,0,5.8,10.09a.86.86,0,0,0,.86.82" style="fill:#ff7b52"/><path d="M24.71,11.44h0a.86.86,0,0,0-1.66.34.82.82,0,0,0,.12.43h0a4.93,4.93,0,0,1,.53,2.24,5.07,5.07,0,0,1-4.1,5V30.94l-.94.67-.94-.67V19.43a5.06,5.06,0,0,1,.92-10,.87.87,0,0,0,0-1.73A6.79,6.79,0,0,0,16,20.71V31.17a.85.85,0,0,0,.33.89l1.78,1.27a.87.87,0,0,0,.84.09.83.83,0,0,0,.32-.14L21,32.06a.86.86,0,0,0,.36-.77h0V20.68a6.8,6.8,0,0,0,3.39-9.24" style="fill:#ff7b52"/><path d="M14.49,21h-.28a5.05,5.05,0,0,1-2.89-.9l-.42.42,0,0L3.11,28.24,2,28.05,1.8,27l7.78-7.77.46-.46a5.07,5.07,0,0,1,1.67-7.27h0a.87.87,0,0,0-.39-1.64.81.81,0,0,0-.46.14h0a6.78,6.78,0,0,0-3,8.44L.31,25.93h0a.86.86,0,0,0-.3.8l.36,2.15a.86.86,0,0,0,.53.66,1,1,0,0,0,.33.13L3.29,30a.85.85,0,0,0,.79-.29h0l7.53-7.54a6.76,6.76,0,0,0,2.59.51h.28a.87.87,0,1,0,0-1.73" style="fill:#ff7b52"/></g></g></svg>