<svg xmlns="http://www.w3.org/2000/svg" viewBox="0 0 26.81 26.06"><title>comprarcasa</title><g id="Capa_2" data-name="Capa 2"><g id="Capa_1-2" data-name="Capa 1"><path d="M7.51,7.34A.58.58,0,0,0,8,7.41H9.2V14a1.08,1.08,0,0,0,1.08,1.07h9.94A1.07,1.07,0,0,0,21.3,14V7.41h1.23a.48.48,0,0,0,.29,0A.55.55,0,0,0,23.26,7,.58.58,0,0,0,23,6.34L20.22,4,15.65.15a.61.61,0,0,0-.8,0L14.08.8,8.18,5.74l-.73.61a.61.61,0,0,0,.06,1" style="fill:#4a544c"/><path d="M7.24,18.84a1.5,1.5,0,0,0,.3,0H23a1.12,1.12,0,0,0,1.34-1.07L26.78,7.24a1.07,1.07,0,1,0-2.08-.49l-2.34,10H8.21L5,3.65A1.07,1.07,0,0,0,3.89,2.58H1.07a1.07,1.07,0,0,0,0,2.14H3l3,12.21a3.58,3.58,0,0,0,1.26,6.94H7.8a3.18,3.18,0,0,0,6.05,0H17.4a3.19,3.19,0,0,0,6.06,0h1.21a1.07,1.07,0,1,0,0-2.13H23.41a3.19,3.19,0,0,0-6,0H13.8a3.19,3.19,0,0,0-6,0H7.33a1.45,1.45,0,0,1-.09-2.9" style="fill:#4a544c"/></g></g></svg>