<svg xmlns="http://www.w3.org/2000/svg" viewBox="0 0 45.1 43.83"><title>cart-icon</title><g id="Capa_2" data-name="Capa 2"><g id="Capa_1-2" data-name="Capa 1"><path d="M12.64,12.35a1,1,0,0,0,.76.12h2.08V23.56a1.81,1.81,0,0,0,1.81,1.81H34a1.81,1.81,0,0,0,1.81-1.81s0-8.3,0-11.09h2a1,1,0,0,0,1.24-.77,1,1,0,0,0-.37-1L34,6.69,26.33.26A1,1,0,0,0,25,.26l-1.3,1.08L13.76,9.65l-1.24,1a1,1,0,0,0,.12,1.66" style="fill:#ff7b52"/><path d="M12.19,31.69a1.34,1.34,0,0,0,.49,0H38.61a1.83,1.83,0,0,0,1.56-.36,1.81,1.81,0,0,0,.71-1.44l4.17-17.72a1.8,1.8,0,0,0-3.5-.82L37.61,28.1H13.82l-5.48-22a1.8,1.8,0,0,0-1.79-1.8H1.8a1.8,1.8,0,0,0,0,3.6H5.09l5.12,20.54a6,6,0,0,0,2.12,11.68h.78a5.37,5.37,0,0,0,10.19,0h6a5.37,5.37,0,0,0,10.19,0h2a1.8,1.8,0,0,0,0-3.6H39.38a5.36,5.36,0,0,0-10,0H23.22a5.36,5.36,0,0,0-10,0h-.86a2.44,2.44,0,0,1-.14-4.88" style="fill:#ff7b52"/></g></g></svg>