<svg xmlns="http://www.w3.org/2000/svg" viewBox="0 0 48.33 45.4"><title>house-icon</title><g id="Capa_2" data-name="Capa 2"><g id="Capa_1-2" data-name="Capa 1"><path d="M47.62,19.08c-2.84-2.36-5.67-4.74-8.5-7.1L25.37.46a1.8,1.8,0,0,0-2.4,0L20.64,2.4,2.89,17.27c-.74.62-1.49,1.22-2.22,1.86a1.82,1.82,0,0,0,.21,3,1.75,1.75,0,0,0,1.37.21H6c0,5,0,19.86,0,19.86A3.24,3.24,0,0,0,9.21,45.4H39.13a3.24,3.24,0,0,0,3.24-3.23s0-14.86,0-19.86h3.68a1.79,1.79,0,0,0,.89,0,1.7,1.7,0,0,0,1.33-1.36,1.81,1.81,0,0,0-.67-1.86" style="fill:#ff7b52"/></g></g></svg>