<svg xmlns="http://www.w3.org/2000/svg" viewBox="0 0 33.65 26.29"><title>datos-gris</title><g id="Capa_2" data-name="Capa 2"><g id="Capa_1-2" data-name="Capa 1"><path d="M27.33,22.3H8.5c-.2,0-.4,0-.6,0a1.43,1.43,0,0,1-1.49-1.5A1.48,1.48,0,0,1,8,19.34c1.38,0,2.78,0,4.17,0h5.27c.22,0,.44,0,.83-.08L16,14.52c1.24-1.26,2.46-2.52,3.71-3.75a.88.88,0,0,1,.75,0q3.2,1.26,6.37,2.59a.81.81,0,0,1,.47.57c0,2.75,0,5.5,0,8.4" style="fill:#4a544c"/><path d="M19.47,3.58,22.2,6.35c-.13.14-.28.34-.45.51Q16.37,12.18,11,17.51a2.06,2.06,0,0,1-1.1.46,16,16,0,0,1-1.7,0,2.83,2.83,0,0,0-2.56,4.48,2,2,0,0,1,.11.25L4.3,24.09l-.25.25c-.4-.5-.76-1-1.2-1.51s-1-.87-1.49-1.35L19.47,3.58" style="fill:#4a544c"/><rect x="28.7" y="13.03" width="4.95" height="9.9" style="fill:#4a544c"/><path d="M13.15,7.52C10,10.81,6.79,14.11,3.6,17.38a1.29,1.29,0,0,1-1.9.06,1.28,1.28,0,0,1,0-1.9q4.4-4.39,8.85-8.75a.91.91,0,0,1,.79-.11c.68.26,1.34.62,1.79.84" style="fill:#4a544c"/><path d="M23.38,5.41,20.6,2.7A30.25,30.25,0,0,1,22.8.38a1.84,1.84,0,0,1,2.53.29,2,2,0,0,1,.06,2.57c-.07.08-.16.16-.23.25L23.38,5.41" style="fill:#4a544c"/><path d="M0,26.29c.32-1.31.57-2.37.82-3.4.63.66,1.27,1.31,2,2L0,26.29" style="fill:#4a544c"/></g></g></svg>