<svg xmlns="http://www.w3.org/2000/svg" viewBox="0 0 24.45 24.45"><title>FAQs</title><g id="Capa_2" data-name="Capa 2"><g id="Capa_1-2" data-name="Capa 1"><path d="M12.23,0A12.23,12.23,0,0,0,1.51,18.12L0,24.45l6.34-1.51A12.22,12.22,0,1,0,12.23,0m1.59,19.57a1.76,1.76,0,0,1-.37.56,1.58,1.58,0,0,1-.54.37,1.82,1.82,0,0,1-1.35,0,1.72,1.72,0,0,1-.55-.37,1.76,1.76,0,0,1-.37-.56,1.65,1.65,0,0,1-.13-.66,1.72,1.72,0,0,1,.13-.68,1.58,1.58,0,0,1,.37-.54,1.72,1.72,0,0,1,.55-.37,1.59,1.59,0,0,1,1.35,0A1.73,1.73,0,0,1,14,18.91a1.51,1.51,0,0,1-.14.66m3.56-8A5.06,5.06,0,0,1,16.51,13a5.7,5.7,0,0,1-1.07.93c-.38.24-.71.44-1,.6l-.28.17a2,2,0,0,0-.26.16,1.66,1.66,0,0,1-.61.92,1.69,1.69,0,0,1-1.73.23A1.57,1.57,0,0,1,11,15.6a1.62,1.62,0,0,1-.37-.55,1.67,1.67,0,0,1-.13-.67,2.41,2.41,0,0,1,.22-1.07,2.87,2.87,0,0,1,.56-.8,4,4,0,0,1,.73-.58l.73-.45c.29-.16.54-.31.74-.44a2.78,2.78,0,0,0,.47-.39,1.29,1.29,0,0,0,.24-.4,1.52,1.52,0,0,0,.08-.51,1.94,1.94,0,0,0-.17-.8,2.23,2.23,0,0,0-.43-.65A2.07,2.07,0,0,0,13,7.85a2,2,0,0,0-.79-.17,1.91,1.91,0,0,0-.8.17,2,2,0,0,0-.65.44,2.1,2.1,0,0,0-.45.65,1.94,1.94,0,0,0-.16.8,1.67,1.67,0,0,1-.14.67,1.9,1.9,0,0,1-.37.55,1.63,1.63,0,0,1-.54.37,1.72,1.72,0,0,1-.68.14,1.67,1.67,0,0,1-.67-.14A1.49,1.49,0,0,1,7.23,11a1.57,1.57,0,0,1-.37-.55,1.67,1.67,0,0,1-.14-.67A5.32,5.32,0,0,1,7.16,7.6,5.74,5.74,0,0,1,8.34,5.85,5.64,5.64,0,0,1,10.1,4.66a5.52,5.52,0,0,1,4.27,0,5.59,5.59,0,0,1,1.75,1.19A5.93,5.93,0,0,1,17.3,7.6a5.49,5.49,0,0,1,.43,2.14,4.62,4.62,0,0,1-.35,1.87" style="fill:#4a544c"/></g></g></svg>