<svg xmlns="http://www.w3.org/2000/svg" viewBox="0 0 45.87 43.83"><title>handsale-icon</title><g id="Capa_2" data-name="Capa 2"><g id="Capa_1-2" data-name="Capa 1"><path d="M40.9,28.27a1.56,1.56,0,0,0-2.19,0l1.47-1.47A1.55,1.55,0,1,0,38,24.61l-1.48,1.47a1.55,1.55,0,1,0-2.19-2.2l-7.56,7.57h-3.5v1.91a1.91,1.91,0,1,1-3.81,0V31.45H15.31a1.88,1.88,0,1,1,0-3.76h10a1.88,1.88,0,1,0,0-3.76H10.55A1.89,1.89,0,0,0,9,24.75l-9,9A25.88,25.88,0,0,0,9.31,43.83l4.18-4.18H30.91a1.58,1.58,0,0,0,1.27-.44l8.72-8.73a1.55,1.55,0,0,0,0-2.2" style="fill:#ff7b52"/><path d="M30.56,16.14h-10a1.88,1.88,0,0,0,0,3.76H35.31a1.87,1.87,0,0,0,1.56-.82l9-9A25.91,25.91,0,0,0,36.55,0L32.37,4.18H15a1.55,1.55,0,0,0-1.27.45L5,13.36a1.56,1.56,0,1,0,2.2,2.2L5.69,17a1.55,1.55,0,1,0,2.19,2.2l1.47-1.48a1.56,1.56,0,1,0,2.2,2.2l7.56-7.56H22.6V10.48a1.91,1.91,0,0,1,3.82,0v1.91h4.14a1.88,1.88,0,0,1,0,3.75" style="fill:#ff7b52"/></g></g></svg>