<svg xmlns="http://www.w3.org/2000/svg" viewBox="0 0 30.92 29.55"><title>financiamiento</title><g id="Capa_2" data-name="Capa 2"><g id="Capa_1-2" data-name="Capa 1"><path d="M27.57,19.06a1,1,0,0,0-1.48,0l1-1a1.06,1.06,0,0,0,0-1.48,1,1,0,0,0-1.48,0l-1,1a1,1,0,0,0,0-1.48,1,1,0,0,0-1.47,0L18,21.2H15.68v1.29a1.29,1.29,0,0,1-2.57,0V21.2H10.32a1.27,1.27,0,0,1,0-2.54h6.76a1.27,1.27,0,0,0,0-2.53h-10a1.24,1.24,0,0,0-1,.56L0,22.75a17.49,17.49,0,0,0,6.28,6.8L9.1,26.73H20.83a1,1,0,0,0,.86-.3l5.88-5.88a1,1,0,0,0,0-1.48" style="fill:#4a544c"/><path d="M20.6,10.88H13.84a1.27,1.27,0,0,0,0,2.54h10a1.25,1.25,0,0,0,1-.56L30.92,6.8A17.35,17.35,0,0,0,24.64,0L21.82,2.82H10.09a1,1,0,0,0-.86.3L3.35,9a1,1,0,0,0,1.48,1.48l-1,1A1,1,0,0,0,5.31,13l1-1a1,1,0,0,0,0,1.48,1,1,0,0,0,1.47,0l5.1-5.1h2.36V7.06a1.29,1.29,0,0,1,2.57,0V8.35H20.6a1.27,1.27,0,0,1,0,2.53" style="fill:#4a544c"/></g></g></svg>