<svg xmlns="http://www.w3.org/2000/svg" viewBox="0 0 30.95 29.55"><title>finance-color</title><g id="Capa_2" data-name="Capa 2"><g id="Capa_1-2" data-name="Capa 1"><path d="M28.07,12.48H5.55a2.87,2.87,0,0,0-2.87,2.88V26.68a2.87,2.87,0,0,0,2.87,2.87H28.07A2.88,2.88,0,0,0,31,26.68V15.36a2.88,2.88,0,0,0-2.88-2.88m.81,11-1,1a1.56,1.56,0,1,0-2.2,2.2l-1,1H8.88l-1-1a1.56,1.56,0,1,0-2.2-2.2l-1-1V18.57l1-1a1.56,1.56,0,1,0,2.2-2.2l1-1H24.74l1,1a1.56,1.56,0,0,0,2.2,2.2l1,1Z" style="fill:#ff7b52"/><path d="M16.81,17a4,4,0,1,0,4,4,4,4,0,0,0-4-4" style="fill:#ff7b52"/><path d="M9.05,19.24A1.78,1.78,0,1,0,10.83,21a1.78,1.78,0,0,0-1.78-1.78" style="fill:#ff7b52"/><path d="M24.57,19.24A1.78,1.78,0,1,0,26.35,21a1.77,1.77,0,0,0-1.78-1.78" style="fill:#ff7b52"/><path d="M4,11.16,3.51,9.87,5.58,5.45,6.87,5a1.55,1.55,0,0,0,2.87.13,1.54,1.54,0,0,0,0-1.19l1.29-.46,14.36,6.72.34.94h2.29a4.2,4.2,0,0,1,2.87,1.12,2.88,2.88,0,0,0-1.65-2.41L8.89.27A2.88,2.88,0,0,0,5.07,1.65L.27,11.91a2.87,2.87,0,0,0,1,3.62v-.17A4.25,4.25,0,0,1,5,11.15a1.55,1.55,0,0,0-1,0" style="fill:#ff7b52"/><path d="M9.2,7.87A1.78,1.78,0,0,0,7.69,11.1l0,0H9.15a1.78,1.78,0,0,0,0-3.25" style="fill:#ff7b52"/><path d="M11.83,11.07l0,0h7.33a4.12,4.12,0,0,0-2-2,4,4,0,0,0-5.35,1.94" style="fill:#ff7b52"/></g></g></svg>