<svg xmlns="http://www.w3.org/2000/svg" viewBox="0 0 89.16 74.97"><title>greeting</title><g id="Capa_2" data-name="Capa 2"><g id="Capa_1-2" data-name="Capa 1"><path d="M74.29,24.82a4.39,4.39,0,0,0-4.12.14,10.06,10.06,0,0,0-4,4,28.38,28.38,0,0,0-2.82,7.51c-.43,1.64-.73,3.3-1.2,4.93a5.16,5.16,0,0,1-.76,1.67A.8.8,0,0,1,59.94,43a3.41,3.41,0,0,1-.4-.84A51.36,51.36,0,0,1,57.61,35c-.36-2-.63-4.06-.85-6.11-.18-1.75-.3-3.49-.45-5.24-.2-2.36-.31-4.73-.5-7.09-.1-1.31-.17-2.62-.31-3.92-.2-1.92-.38-3.84-.75-5.73A13.29,13.29,0,0,0,53.67,3.1a2.93,2.93,0,0,0-2.48-1.79,3.47,3.47,0,0,0-3.32,2.77,18.09,18.09,0,0,0-.55,4.33c-.07,3.6,0,7.19.25,10.78.12,1.7.18,3.41.32,5.11.18,2.16.31,4.32.3,6.49a5.16,5.16,0,0,1-.2,1.83c-.05.15-.09.34-.29.35a.51.51,0,0,1-.41-.29,6.65,6.65,0,0,1-.72-1.8c-.5-1.63-.88-3.29-1.27-4.94-.43-1.82-.84-3.64-1.28-5.45-.3-1.2-.62-2.39-.94-3.58-.55-2.05-1.09-4.09-1.66-6.12C41,9.4,40.59,8,40.14,6.66a32.77,32.77,0,0,0-1.84-4.8A3.31,3.31,0,0,0,32,3.43a35.55,35.55,0,0,0,1,8.35c.43,2.13.94,4.25,1.48,6.36.5,1.94.92,3.91,1.41,5.86.67,2.68,1.34,5.36,1.89,8.07a10.89,10.89,0,0,1,.31,2.67c0,.15,0,.31-.19.36s-.23-.09-.32-.19a7,7,0,0,1-1.15-1.71q-2.1-4-3.83-8.1l-3.06-7.41A54.15,54.15,0,0,0,26,10.4a3.64,3.64,0,0,0-2.26-1.83,3.24,3.24,0,0,0-3.89,3.56,31.2,31.2,0,0,0,1.29,4.94c.45,1.38.93,2.75,1.46,4.1.67,1.77,1.31,3.55,2,5.33.58,1.55,1.19,3.09,1.76,4.65q1.05,2.85,2.05,5.72a16,16,0,0,1,.71,2.45c0,.12.08.29-.05.37s-.27,0-.37-.15-.51-.5-.73-.77a52.7,52.7,0,0,1-5.06-7.5c-1.48-2.6-2.95-5.21-4.67-7.66a11.32,11.32,0,0,0-3-3.17,2.36,2.36,0,0,0-3.7,1.29,7.31,7.31,0,0,0-.07,1.81c.26.81.37,1.66.64,2.47s.67,1.76,1,2.64a15.77,15.77,0,0,1,.76,1.86h0a8.62,8.62,0,0,1,.84,1.55c.32.67.66,1.33,1,2l0,.1a1.91,1.91,0,0,0,.14.21L18.37,39s0,0,0,0h0l0,0,.45.81,0,.12v0l.2.3.49.91a8.53,8.53,0,0,1,.36.88l0,.09a3.37,3.37,0,0,1,.65,1.17c.79,1.62,1.51,3.27,2.24,4.91a7.25,7.25,0,0,1,.43,1.18.36.36,0,0,0,0,.09,10.4,10.4,0,0,1,.86,2c.38,1,.77,2,1.16,3l2.55,6.52a24.08,24.08,0,0,0,3.75,6.43,20,20,0,0,0,7.84,5.9A20.19,20.19,0,0,0,45,74.82a21.13,21.13,0,0,0,6.2-.18,25.36,25.36,0,0,0,3.7-.93,16.57,16.57,0,0,0,4.65-2.26,19,19,0,0,0,5.57-6.77,40.73,40.73,0,0,0,2.51-6.08,42.14,42.14,0,0,0,1.44-5.73c.34-1.78.61-3.57.92-5.35.22-1.33.47-2.66.69-4,.26-1.61.58-3.21,1-4.8a.15.15,0,0,1,0-.07h0l.07-.19a24.72,24.72,0,0,1,.76-2.93c.08-.27,0-.59.29-.81l.06-.23a.25.25,0,0,1,.12-.3A2.45,2.45,0,0,1,73,33.9c.64-1.57,1.33-3.1,1.82-4.72a8.38,8.38,0,0,0,.43-2.47,1.93,1.93,0,0,0-1-1.89" style="fill:#ff9f7d"/><path d="M9.9,58.83a28.61,28.61,0,0,1-2.49-2.31,20.47,20.47,0,0,1-4.54-7.36A16.76,16.76,0,0,1,2,44.69a28.55,28.55,0,0,1,.74-7.92c.11-.45.2-.92.3-1.38A17.63,17.63,0,0,0,.3,48.21a16.47,16.47,0,0,0,.94,3,14.4,14.4,0,0,0,7.24,7.28,5.44,5.44,0,0,0,1.61.53c0-.09-.13-.13-.19-.18" style="fill:#ff9f7d"/><path d="M8.28,37.21A9.15,9.15,0,0,0,7.12,39.5a12.21,12.21,0,0,0-.79,4A10.2,10.2,0,0,0,7,47.21a10.72,10.72,0,0,0,3.76,5.35,5.53,5.53,0,0,0,2.06,1.06,15.72,15.72,0,0,1-4.5-16.41" style="fill:#ff9f7d"/><path d="M77.29,10a26.5,26.5,0,0,1,2.78,1.93,20.41,20.41,0,0,1,5.53,6.65,16.62,16.62,0,0,1,1.54,4.3,28.56,28.56,0,0,1,.37,7.94c0,.47-.07.94-.1,1.41a17.61,17.61,0,0,0,.87-13.07,16.23,16.23,0,0,0-1.35-2.82,14.3,14.3,0,0,0-8.19-6.2,5.42,5.42,0,0,0-1.66-.3c0,.08.14.11.21.16" style="fill:#ff9f7d"/><path d="M81.93,31.18a9.29,9.29,0,0,0,.82-2.43A12.12,12.12,0,0,0,83,24.68a10.63,10.63,0,0,0-1.15-3.59,10.69,10.69,0,0,0-4.48-4.76,5.4,5.4,0,0,0-2.18-.76,15.73,15.73,0,0,1,6.76,15.61" style="fill:#ff9f7d"/></g></g></svg>