<svg xmlns="http://www.w3.org/2000/svg" viewBox="0 0 25.57 25.58"><title>help</title><g id="Capa_2" data-name="Capa 2"><g id="Capa_1-2" data-name="Capa 1"><path d="M25.57,11.82v1.93c0,.15-.08.29-.1.43a12.5,12.5,0,0,1-8.75,10.74,23.73,23.73,0,0,1-3,.66H11.82a1.78,1.78,0,0,0-.38-.1,12.67,12.67,0,0,1-10.86-9c-.27-.9-.39-1.84-.58-2.76V11.82c0-.14.08-.28.1-.43A12.47,12.47,0,0,1,8.8.68a23.2,23.2,0,0,1,3-.68h1.93c.13,0,.25.08.38.1a12.68,12.68,0,0,1,11.12,10c.13.59.22,1.18.32,1.77M8,12.79A4.82,4.82,0,1,0,12.78,8,4.85,4.85,0,0,0,8,12.79M22.12,7.41c-2.24-4-6.8-5.69-9.33-5.31V6a6.89,6.89,0,0,1,5.89,3.39l3.44-2m-3.44,8.77a6.94,6.94,0,0,1-5.93,3.41c0,1.21,0,2.36,0,3.51,0,.43.17.5.55.48a10.66,10.66,0,0,0,6.6-2.67,10,10,0,0,0,2.24-2.74l-3.45-2m-11.78,0a6.94,6.94,0,0,1,0-6.81l-3.41-2c-2,2.65-2,8.17,0,10.75l3.41-2" style="fill:#4a544c"/></g></g></svg>