<svg xmlns="http://www.w3.org/2000/svg" viewBox="0 0 25.17 26.24"><title>servicios-propietarios</title><g id="Capa_2" data-name="Capa 2"><g id="Capa_1-2" data-name="Capa 1"><path d="M16.1,3.43c-.64.95-1.17,1.8-1.76,2.6a1,1,0,0,1-.7.25c-3,0-6,0-9,0-1.35,0-1.8.45-1.8,1.81v13.5c0,1.3.48,1.79,1.77,1.79H18.2c1.23,0,1.76-.53,1.76-1.75,0-1.81,0-3.61,0-5.42a2.3,2.3,0,0,1,.35-1.13c.73-1.17,1.53-2.32,2.38-3.6a5.81,5.81,0,0,1,.08.62c0,3.2,0,6.4,0,9.6a4.23,4.23,0,0,1-4.5,4.51q-6.91,0-13.83,0A4.25,4.25,0,0,1,0,21.73V8A4.29,4.29,0,0,1,4.51,3.43H16.1" style="fill:#4a544c"/><path d="M12.11,14.57,19.88,3c.43-.64.86-1.29,1.3-1.93a2.14,2.14,0,1,1,3.54,2.4c-2.69,4-5.4,8-8.09,12-.77,1.14-1.52,2.28-2.29,3.41a2.15,2.15,0,0,1-3.54.36q-2.58-2.57-5.13-5.14a2.14,2.14,0,1,1,3-3c1.14,1.12,2.25,2.27,3.43,3.45" style="fill:#4a544c"/></g></g></svg>