<svg xmlns="http://www.w3.org/2000/svg" viewBox="0 0 40.24 41.95"><title>prop-services-icon</title><g id="Capa_2" data-name="Capa 2"><g id="Capa_1-2" data-name="Capa 1"><path d="M25.73,5.49c-1,1.52-1.86,2.87-2.81,4.16a1.6,1.6,0,0,1-1.12.4c-4.78,0-9.57,0-14.35,0-2.15,0-2.88.73-2.88,2.9V34.55c0,2.07.77,2.85,2.84,2.85H29.1c2,0,2.8-.84,2.81-2.79,0-2.89,0-5.77,0-8.66a3.66,3.66,0,0,1,.56-1.81c1.18-1.88,2.44-3.7,3.81-5.75a9.42,9.42,0,0,1,.12,1c0,5.11,0,10.22,0,15.34,0,4.39-2.8,7.2-7.18,7.21q-11.07,0-22.13,0A6.79,6.79,0,0,1,0,34.74q0-11,0-22a6.83,6.83,0,0,1,7.2-7.23H25.73" style="fill:#ff7b52"/><path d="M19.36,23.3C23.57,17,27.68,10.93,31.78,4.81c.7-1,1.38-2.06,2.08-3.08a3.43,3.43,0,1,1,5.66,3.84Q33.07,15.2,26.58,24.82c-1.22,1.81-2.43,3.63-3.66,5.44-1.49,2.18-3.8,2.43-5.66.58q-4.13-4.1-8.19-8.22a3.42,3.42,0,1,1,4.81-4.84c1.81,1.79,3.59,3.62,5.48,5.52" style="fill:#ff7b52"/></g></g></svg>