<svg xmlns="http://www.w3.org/2000/svg" viewBox="0 0 29.85 33.16"><title>bulb</title><g id="Capa_2" data-name="Capa 2"><g id="Capa_1-2" data-name="Capa 1"><path d="M24.15,14.9A9.72,9.72,0,0,1,22.53,20a5.89,5.89,0,0,1-.41.57c-1.72,2.09-2.84,4.38-2.45,7.2.09.65.1,1.35-.67,1.73-.15.08-.17.41-.23.64a4,4,0,0,1-7.74,0c0-.19-.06-.49-.19-.56-.89-.44-.79-1.26-.7-2,.36-2.7-.75-4.87-2.34-6.89a9.14,9.14,0,1,1,15.83-8.44,25.47,25.47,0,0,1,.52,2.63m-9.33,8.46h0c.93,0,1.87,0,2.79,0a1.17,1.17,0,0,0,.77-.47c.79-1.19,1.47-2.44,2.29-3.6a7.56,7.56,0,0,0,1.5-4.65,7.24,7.24,0,1,0-13,4.64c.39.54.8,1.08,1.16,1.64.53.8.84,2,1.58,2.36s1.93.09,2.92.09M12.1,27.53h5.6V25.36H12.05v1.71c0,.14,0,.28,0,.46m.8,2a2.05,2.05,0,0,0,2.18,1.71,1.9,1.9,0,0,0,1.78-1.71Z" style="fill:#ff9f7d"/><path d="M5.27,8.65a1,1,0,0,1-1.35,1,6.43,6.43,0,0,1-1.65-1A1.4,1.4,0,0,1,2,7.48a.79.79,0,0,1,1.22-.41A13,13,0,0,1,4.76,8a2.33,2.33,0,0,1,.51.67" style="fill:#ff9f7d"/><path d="M25.51,9.92c-.35-.3-.71-.48-.8-.74a1.14,1.14,0,0,1,.14-1,9.18,9.18,0,0,1,2-1.17,1.16,1.16,0,0,1,.94.4c.16.2.19.8,0,.92-.7.57-1.49,1-2.33,1.6" style="fill:#ff9f7d"/><path d="M1.76,15.84c-.32,0-.71.12-.94,0S0,15.25,0,14.91A1.18,1.18,0,0,1,.72,14a5.1,5.1,0,0,1,2.06,0,1.23,1.23,0,0,1,.74.94c0,.3-.48.67-.82.87s-.63,0-.94,0Z" style="fill:#ff9f7d"/><path d="M28,15.85c-.29,0-.64.1-.86,0s-.78-.52-.87-.87c-.16-.56.28-.93.84-1a12.42,12.42,0,0,1,1.83,0,.88.88,0,0,1,.91,1,.89.89,0,0,1-1,.91H28" style="fill:#ff9f7d"/><path d="M2.78,23.07c-.38-.35-.78-.56-.88-.87a1.07,1.07,0,0,1,.27-1,7,7,0,0,1,1.88-1.06,1.25,1.25,0,0,1,1,.38.93.93,0,0,1,0,.91c-.7.57-1.49,1-2.34,1.61" style="fill:#ff9f7d"/><path d="M27,23a23.28,23.28,0,0,1-2.26-1.46,1,1,0,0,1,0-1,1.14,1.14,0,0,1,1-.38,6.49,6.49,0,0,1,1.88,1.07,1.24,1.24,0,0,1,.23,1.07c-.08.27-.51.44-.85.7" style="fill:#ff9f7d"/><path d="M8.07,1.86c.08,0,.37.08.47.25a10.93,10.93,0,0,1,1.13,2,1.06,1.06,0,0,1-.44,1A1.24,1.24,0,0,1,8.1,4.93a7.37,7.37,0,0,1-1-1.88c-.24-.6.25-1.19,1-1.19" style="fill:#ff9f7d"/><path d="M21.85,1.85c.74.06,1.18.62.94,1.18A8.31,8.31,0,0,1,21.67,5a1.15,1.15,0,0,1-1.07.15,1.12,1.12,0,0,1-.44-1,11.19,11.19,0,0,1,1.13-2c.12-.18.45-.22.56-.26" style="fill:#ff9f7d"/><path d="M15.85,1.82c0,.35.08.77-.08,1a1.43,1.43,0,0,1-.92.7A1.1,1.1,0,0,1,14,2.86a6.87,6.87,0,0,1,0-2.17A1.05,1.05,0,0,1,14.86,0a1.36,1.36,0,0,1,.91.71c.15.29,0,.74,0,1.11h0" style="fill:#ff9f7d"/><path d="M13.86,14.07c0-.73,0-1.45,0-2.18s.32-1.13,1-1.14,1,.43,1.06,1.11c0,1.51,0,3,0,4.54a1,1,0,0,1-1.07,1.11c-.69,0-1-.48-1-1.17V14.07" style="fill:#ff9f7d"/><path d="M14.87,18.47A1.07,1.07,0,0,1,16,19.56a1,1,0,0,1-1.05,1.15,1.07,1.07,0,0,1-1.13-1.08,1.09,1.09,0,0,1,1.06-1.16" style="fill:#ff9f7d"/></g></g></svg>