<svg xmlns="http://www.w3.org/2000/svg" viewBox="0 0 18.47 14.4"><title>car</title><g id="Capa_2" data-name="Capa 2"><g id="Capa_1-2" data-name="Capa 1"><path d="M16.25,5.72A6.68,6.68,0,0,0,9.66,0H8.81A6.69,6.69,0,0,0,2.22,5.72a3.33,3.33,0,0,0-1.34,5.4V14.4H4V12.2H14.53v2.2H17.6V11.12a3.34,3.34,0,0,0-1.35-5.4M4.12,10.56H2.72A1.39,1.39,0,0,1,1.48,9.11c0-.8.6-1.25,1.24-1l1.4.46a1.17,1.17,0,0,1,.63,1.12c0,.5-.26.9-.63.9m1.1-5A3.78,3.78,0,0,1,8.81,2.91h.85a3.77,3.77,0,0,1,3.59,2.62Zm10.54,5H14.35c-.36,0-.63-.4-.63-.9a1.19,1.19,0,0,1,.63-1.12l1.41-.46c.63-.22,1.23.23,1.23,1a1.39,1.39,0,0,1-1.23,1.45" style="fill:#b3b3b3"/></g></g></svg>