<svg xmlns="http://www.w3.org/2000/svg" viewBox="0 0 13.73 13.81"><title>ruler</title><g id="Capa_2" data-name="Capa 2"><g id="Capa_1-2" data-name="Capa 1"><polygon points="2.08 7.38 2.08 6.44 4.17 6.44 4.17 4.99 2.08 4.99 2.08 4.05 4.17 4.05 4.17 2.6 2.08 2.6 2.08 1.66 4.17 1.66 4.17 0 0 0 0 13.22 4.17 9.04 4.17 7.38 2.08 7.38" style="fill:#b3b3b3"/><polygon points="6.4 11.71 7.33 11.71 7.33 9.62 8.77 9.62 8.77 11.71 9.71 11.71 9.71 9.62 11.15 9.62 11.15 11.71 12.08 11.71 12.08 9.62 13.73 9.62 13.73 13.81 0.58 13.81 4.74 9.62 6.4 9.62 6.4 11.71" style="fill:#b3b3b3"/></g></g></svg>