<svg xmlns="http://www.w3.org/2000/svg" viewBox="0 0 41.1 41.1"><title>profile</title><g id="Capa_2" data-name="Capa 2"><g id="Capa_1-2" data-name="Capa 1"><path d="M41.1,20.55A20.55,20.55,0,1,0,20.55,41.1,20.55,20.55,0,0,0,41.1,20.55" style="fill:#ff9f7d"/><path d="M20.55,22.7a8.15,8.15,0,1,0-8.15-8.14,8.14,8.14,0,0,0,8.15,8.14m5.92-6a6.31,6.31,0,0,1-11.85,0Z" style="fill:#fff"/><path d="M26.88,22.87a10.47,10.47,0,0,1-12.66,0c-4.89,2.76-4.89,4.9-4.89,4.9v6.74a17.91,17.91,0,0,0,22.44,0V27.77s0-2.14-4.89-4.9" style="fill:#fff"/></g></g></svg>