<svg xmlns="http://www.w3.org/2000/svg" viewBox="0 0 351.49 46.33"><title>LOGO</title><g id="Capa_2" data-name="Capa 2"><g id="Capa_1-2" data-name="Capa 1"><path d="M44.48,44.14l14.7-.92a.4.4,0,0,0,.36-.31L62,32.73a.4.4,0,0,0-.45-.49L42.37,35.12a.41.41,0,0,0-.33.5l2,8.22a.4.4,0,0,0,.42.3" style="fill:#64886c"/><path d="M42.68,13.23l20.89,1.59a.77.77,0,0,0,.83-.77V1.89a.77.77,0,0,0-.81-.77L44.28,2a.76.76,0,0,0-.72.64L42,12.33a.77.77,0,0,0,.7.9" style="fill:#717070"/><path d="M37.56,2.23,39.37,15a.41.41,0,0,1-.49.46L25.6,12.89a.41.41,0,0,1-.32-.46l1.41-11a.42.42,0,0,1,.44-.36l10.06.77a.4.4,0,0,1,.37.35" style="fill:#b2b1b6"/><path d="M22.81.52V13.77a.53.53,0,0,1-.57.52L.48,12.45A.53.53,0,0,1,0,11.88L.83,1.53a.53.53,0,0,1,.5-.48L22.26,0a.52.52,0,0,1,.55.52" style="fill:#284168"/><path d="M42,28.76l6.18,2.61a.39.39,0,0,0,.26,0l12-3.3a.41.41,0,0,0,.29-.39V20.19a.39.39,0,0,0-.32-.39c-2.79-.56-5.57-1.1-8.36-1.64l-5.4-1.06c-1.7-.34-2.14-.7-2.38,1.46,0,.48-.07,1-.12,1.43-.31,2.94-1.7,5.49-2.37,8.31a.39.39,0,0,0,.23.46" style="fill:#284168"/><path d="M23.26,36.2l4.57.59a.4.4,0,0,0,.45-.38l.12-2.53a.41.41,0,0,0-.39-.43l-4.52-.1a.4.4,0,0,0-.41.38l-.17,2a.39.39,0,0,0,.35.43" style="fill:#717070"/><path d="M8.44,17h7.91a.4.4,0,0,1,.4.4v3.66a.41.41,0,0,1-.46.4L8.78,20.31A.42.42,0,0,1,8.44,20L8,17.46a.4.4,0,0,1,.4-.47" style="fill:#b2b1b6"/><path d="M31.84,34.35l7.29.71a.39.39,0,0,0,.42-.27l.94-2.88a.4.4,0,0,0-.35-.53l-7.93-.71a.4.4,0,0,0-.44.36l-.29,2.88a.4.4,0,0,0,.36.44" style="fill:#b2b1b6"/><path d="M20.13,17.12l10.55.7,5.27.35c.76,0,4.21-.2,4.56.5a1.09,1.09,0,0,1,.06.62c-.16,1.73-.33,3.46-.49,5.19a.85.85,0,0,1-.14.44.74.74,0,0,1-.38.2,55.77,55.77,0,0,1-5.78,1,14,14,0,0,0-5.67,2c-1.08.82-1.37,2-2.31,3.15a.4.4,0,0,1-.38.14l-6.78-1.32a.4.4,0,0,1-.32-.44L19.7,17.48a.42.42,0,0,1,.43-.36" style="fill:#64886c"/><path d="M4.25,39.83l11.94-.35a.4.4,0,0,0,.39-.44L15,24.44a.41.41,0,0,0-.43-.36L4.2,24.89a.41.41,0,0,0-.37.41V39.42a.41.41,0,0,0,.42.41" style="fill:#717070"/><path d="M.36,22.7l3.31.75a.41.41,0,0,0,.49-.34l1.16-7.82A.4.4,0,0,0,5,14.83l-3.43-.44a.41.41,0,0,0-.46.34l-1,7.52a.39.39,0,0,0,.31.45" style="fill:#64886c"/><path d="M20.77,38.07l19-.45a.81.81,0,0,1,.82.81v7.09a.8.8,0,0,1-.84.81l-19-.95a.81.81,0,0,1-.77-.81V38.88a.81.81,0,0,1,.79-.81" style="fill:#284168"/><path d="M79.27,37.05h3.42l0-27.51H79.29V8h13c4.13,0,7.17.84,9.1,2.54a9.14,9.14,0,0,1,2.89,7.25,10.18,10.18,0,0,1-3,7.64q-3,2.93-8.9,2.93H88.1v8.71h5.07v1.57H79.27ZM91.87,27c3.19,0,5.27-1.73,6.24-5.21a13.7,13.7,0,0,0,.54-3.84,9.85,9.85,0,0,0-1.58-6.05,6,6,0,0,0-5.16-2.32H88.1V27Z" style="fill:#223152"/><path d="M109.85,17.6h-2V16.47h8V17.6h-2.11V30.83c0,3.46,1,5.5,3,6.14a6.21,6.21,0,0,0,1.92.31,12.88,12.88,0,0,0,1.62-.08,6.58,6.58,0,0,0,1.36-.33,5.12,5.12,0,0,0,2.5-2,7.73,7.73,0,0,0,1-4.24v-13h-2.26V16.47h5.79V17.6H126.5V30.79c0,2.64-.7,4.6-2.09,5.9a8,8,0,0,1-5.66,1.94q-6.72,0-8.45-5a9.92,9.92,0,0,1-.46-3.24Z" style="fill:#223152"/><polygon points="132.01 37.49 134.53 37.49 134.53 17.6 132.01 17.6 132.01 16.47 138.56 16.47 150.29 33.91 150.29 17.6 147.48 17.6 147.48 16.47 154.35 16.47 154.35 17.6 151.71 17.6 151.71 38.62 149.01 38.62 135.95 19.41 135.95 37.49 138.88 37.49 138.88 38.62 132.01 38.62 132.01 37.49" style="fill:#223152"/><path d="M162.82,37.49h2.88l0-19.82H163a3.54,3.54,0,0,0-3.33,1.63,9.68,9.68,0,0,0-.85,4.14h-1.13v-7H177.6v7h-1.13a9.63,9.63,0,0,0-.87-4.14,3.51,3.51,0,0,0-3.31-1.63h-2.68V37.49h2.89v1.13h-9.68Z" style="fill:#223152"/><path d="M180.26,37.49h1.56l8.17-21h1.67l8.73,21h1.48v1.13H194V37.49h2.17l-2.08-5.05h-8.79l-1.91,5.05H186v1.13h-5.72Zm13.34-6.18-4.11-10-3.77,10Z" style="fill:#223152"/><path d="M215.42,37.05h3.42l0-27.51h-3.42V8h13c4.13,0,7.17.84,9.1,2.54a9.14,9.14,0,0,1,2.89,7.25,10.18,10.18,0,0,1-3,7.64q-3,2.93-8.9,2.93h-4.27v8.71h5.07v1.57h-13.9ZM228,27c3.19,0,5.27-1.73,6.24-5.21a13.7,13.7,0,0,0,.54-3.84,9.85,9.85,0,0,0-1.58-6.05,6,6,0,0,0-5.16-2.32h-3.81V27Z" style="fill:#223152"/><polygon points="244.73 37.49 247.58 37.49 247.59 17.6 244.73 17.6 244.73 16.47 254.34 16.47 254.34 17.6 251.49 17.6 251.49 37.49 254.34 37.49 254.34 38.62 244.73 38.62 244.73 37.49" style="fill:#223152"/><path d="M257.93,37.47h2.89l0-19.87h-2.91V16.47h18.71v6.46h-1.13c-.05-.84-.11-1.59-.2-2.25a4.22,4.22,0,0,0-.55-1.67q-.84-1.41-3.42-1.41h-6.61v9.09h3.62a3.76,3.76,0,0,0,1.89-.38A1.72,1.72,0,0,0,271,25c0-.18,0-.38,0-.58s0-.41.05-.61h1.22v7.47h-1.22c0-.24,0-.5-.05-.81s0-.56,0-.76a1.93,1.93,0,0,0-.82-1.47,3.52,3.52,0,0,0-1.87-.42h-3.62v9.65h6.19c2.54,0,4.08-1.13,4.62-3.41a13.48,13.48,0,0,0,.31-2H277v6.58h-19Z" style="fill:#223152"/><path d="M281.5,37.49h2.9V17.6H281.5V16.47h9.76q8.72,0,11.29,5.52a12.72,12.72,0,0,1,1.05,5.38,11.4,11.4,0,0,1-2.4,7.22,10.39,10.39,0,0,1-5.63,3.49,16.92,16.92,0,0,1-4.52.54H281.5Zm9.38,0q4.56,0,6.53-2.28t2-7.74V27q-.09-5.23-2.11-7.33c-1.35-1.39-3.41-2.09-6.2-2.09H288.3V37.49Z" style="fill:#223152"/><path d="M317.12,16.47q8.33,0,8.32,5.55a5.37,5.37,0,0,1-1.53,4A7.51,7.51,0,0,1,319.8,28a5.74,5.74,0,0,1,4.66,3.5,21.5,21.5,0,0,1,.89,2.61,11.13,11.13,0,0,0,.68,2,2.12,2.12,0,0,0,2,1.33h.58l0,1.21h-2c-1.89,0-3.17-.26-3.82-.77a5.35,5.35,0,0,1-1.52-3.08,23.83,23.83,0,0,0-.78-2.87,7,7,0,0,0-1.65-2.59,3.69,3.69,0,0,0-2.62-.94h-2.65v9h3.39v1.21h-9.63V37.41h2.33l0-19.81h-2.35V16.47Zm-.26,10.9a4,4,0,0,0,3.7-1.68,6.42,6.42,0,0,0,.78-3.46,5,5,0,0,0-.91-3.31,4.81,4.81,0,0,0-3.83-1.32h-3.07v9.77Z" style="fill:#223152"/><path d="M329.88,37.49h1.57l8.16-21h1.68l8.72,21h1.48v1.13H343.6V37.49h2.17l-2.08-5.05H334.9L333,37.49h2.61v1.13h-5.72Zm13.35-6.18-4.11-10-3.78,10Z" style="fill:#223152"/></g></g></svg>